<?xml version="1.0" encoding="UTF-8"?> <svg xmlns="http://www.w3.org/2000/svg" width="273" height="72" viewBox="0 0 273 72" fill="none"><path d="M24.974 41.788C19.289 41.788 14.456 38.282 14.074 28.333H48.661C48.8009 24.1728 48.2894 20.0162 47.145 16.014C44.113 6.25398 35.963 0 24.877 0C9.80998 0 0.997986 10.991 0.997986 25.205C0.997986 40.556 9.81098 51.169 24.972 51.169C37.764 51.169 46.103 43.869 47.998 35.06H34.448C33.785 38.945 30.279 41.788 24.972 41.788M8.35298 17.629C8.35318 16.4877 8.69179 15.372 9.32599 14.4232C9.96019 13.4743 10.8615 12.7348 11.916 12.2981C12.9705 11.8614 14.1307 11.7472 15.2501 11.9699C16.3695 12.1926 17.3977 12.7422 18.2047 13.5493C19.0117 14.3563 19.5613 15.3845 19.784 16.5038C20.0067 17.6232 19.8926 18.7835 19.4559 19.838C19.0192 20.8924 18.2797 21.7938 17.3308 22.428C16.3819 23.0622 15.2663 23.4008 14.125 23.401C13.367 23.4011 12.6163 23.2519 11.916 22.9619C11.2156 22.6718 10.5793 22.2467 10.0433 21.7107C9.50727 21.1747 9.08211 20.5383 8.79208 19.838C8.50206 19.1376 8.35285 18.387 8.35298 17.629" fill="white"></path><path d="M88.99 32.956H95.696C94.758 37.318 90.631 40.929 84.296 40.929C76.796 40.929 72.43 35.676 72.43 28.079C72.43 21.045 76.792 15.604 84.249 15.604C86.708 15.5019 89.1302 16.2274 91.1282 17.6645C93.1262 19.1016 94.5845 21.1672 95.27 23.531C95.8366 25.5127 96.0897 27.571 96.02 29.631H78.906C79.094 34.555 81.485 36.291 84.299 36.291C86.926 36.291 88.661 34.885 88.989 32.961M79.046 25.504H89.458C89.036 21.893 86.879 20.252 84.253 20.252C81.58 20.252 79.563 21.893 79.047 25.504" fill="white"></path><path d="M115.206 40.1779V37.0359H115.106C114.392 38.2039 113.385 39.1649 112.184 39.8235C110.984 40.4822 109.633 40.8157 108.264 40.7909C102.264 40.7909 98.364 35.8669 98.364 28.2689C98.364 20.6709 102.21 15.7479 108.164 15.7479C109.49 15.715 110.803 16.0155 111.983 16.6217C113.163 17.228 114.172 18.1206 114.917 19.2179H115.017V6.78589H121.581V40.1779H115.206ZM105.216 28.2659C105.216 32.8149 107.232 35.7659 110.375 35.7659C113.33 35.7659 115.346 32.9989 115.346 28.2659C115.346 23.5329 113.33 20.7659 110.375 20.7659C107.233 20.7659 105.216 23.7199 105.216 28.2659Z" fill="white"></path><path d="M125.382 30.986V16.354H131.95V30.33C131.95 33.941 133.544 35.5829 136.124 35.5829C138.845 35.5829 140.812 33.426 140.812 29.111V16.354H147.379V40.174H141.235V37.174H141.14C140.349 38.2871 139.301 39.1926 138.084 39.8134C136.868 40.4341 135.52 40.7516 134.154 40.739C128.807 40.739 125.383 37.4559 125.383 30.9839" fill="white"></path><path d="M158.914 6.78699H152.348V40.179H158.914V6.78699Z" fill="white"></path><path d="M163.885 6.79004H170.452V12.418H163.885V6.79004ZM163.885 16.3571H170.452V40.1821H163.885V16.3571Z" fill="white"></path><path d="M195.916 25.03V33.6591C195.848 35.8514 196.068 38.0432 196.572 40.178H190.664C190.429 39.1315 190.318 38.0606 190.336 36.988H190.241C189.37 38.2131 188.205 39.1991 186.852 39.855C185.5 40.5109 184.004 40.8156 182.503 40.741C177.438 40.741 174.389 37.641 174.389 33.519C174.389 29.626 176.733 27 183.628 25.919C185.411 25.638 188.084 25.3571 189.585 25.2631V24.421C189.585 21.421 187.985 20.199 185.69 20.199C183.251 20.199 181.844 21.5601 181.752 23.8101H175.372C175.608 19.2611 178.89 15.6021 185.69 15.6021C192.443 15.6021 195.915 18.792 195.915 25.03M189.584 29.251C188.178 29.344 186.207 29.5321 184.801 29.7661C182.08 30.2351 180.955 31.126 180.955 33.049C180.955 34.831 182.175 36.049 184.47 36.049C185.85 36.0951 187.194 35.6081 188.224 34.689C189.349 33.563 189.585 32.297 189.585 30.14L189.584 29.251Z" fill="white"></path><path d="M79.112 51.9509C84.34 51.9509 87.305 54.7629 87.305 59.7709C87.305 64.7789 84.34 67.59 79.112 67.59H74.104V51.9509H79.112ZM76.718 65.306H79.068C82.714 65.306 84.581 63.4169 84.581 59.7709C84.581 56.1249 82.714 54.236 79.068 54.236H76.718V65.306Z" fill="white"></path><path d="M98.553 60.4739V64.647C98.5288 65.6359 98.6248 66.6242 98.839 67.59H96.577C96.4693 67.0774 96.4176 66.5547 96.423 66.0309H96.379C95.9598 66.6278 95.3941 67.1068 94.7364 67.4221C94.0786 67.7373 93.3508 67.8781 92.623 67.8309C90.295 67.8309 88.845 66.425 88.845 64.514C88.845 62.691 89.921 61.5049 93.128 60.9999C94.028 60.8459 95.346 60.714 96.137 60.67V60.231C96.1837 59.9289 96.1609 59.6202 96.0702 59.3282C95.9795 59.0363 95.8233 58.769 95.6136 58.5466C95.404 58.3242 95.1463 58.1525 94.8602 58.0448C94.5742 57.9371 94.2673 57.8961 93.963 57.925C93.6867 57.8914 93.4064 57.9169 93.1407 57.9999C92.8751 58.0829 92.6301 58.2214 92.422 58.4062C92.214 58.5911 92.0476 58.8181 91.934 59.0722C91.8204 59.3263 91.7621 59.6016 91.763 59.8799H89.303C89.413 57.7709 90.95 56.1019 93.96 56.1019C96.903 56.1029 98.553 57.5529 98.553 60.4739ZM96.137 62.2969C95.2761 62.3489 94.4183 62.4443 93.567 62.5829C91.967 62.8469 91.367 63.33 91.367 64.34C91.367 65.329 92.067 65.9869 93.344 65.9869C94.0895 66.0131 94.8153 65.7452 95.365 65.241C95.661 64.9228 95.8834 64.5435 96.0163 64.1297C96.1492 63.7159 96.1894 63.278 96.134 62.847L96.137 62.2969Z" fill="white"></path><path d="M101.625 67.59V51.9509H104.125V67.59H101.625Z" fill="white"></path><path d="M122.996 56.762H120.341C120.341 54.785 119.221 53.775 117.2 53.775C115.509 53.775 114.455 54.5879 114.455 55.8619C114.455 57.2899 115.531 57.729 118.035 58.344C120.978 59.069 123.435 59.837 123.435 63.132C123.435 66.032 121.107 67.92 117.592 67.92C113.814 67.92 111.508 66.009 111.508 62.429H114.208C114.208 64.669 115.438 65.745 117.608 65.745C119.563 65.745 120.708 64.845 120.708 63.373C120.708 61.791 119.566 61.44 117.172 60.847C114.206 60.1 111.747 59.375 111.747 56.103C111.747 53.446 113.921 51.6219 117.238 51.6219C121.041 51.6219 122.996 53.401 122.996 56.762Z" fill="white"></path><path d="M134.747 60.4739V64.647C134.723 65.6359 134.819 66.6242 135.033 67.59H132.771C132.663 67.0774 132.611 66.5547 132.617 66.0309H132.573C132.154 66.6279 131.588 67.107 130.93 67.4222C130.273 67.7374 129.545 67.8782 128.817 67.8309C126.489 67.8309 125.039 66.425 125.039 64.514C125.039 62.691 126.115 61.5049 129.322 60.9999C130.222 60.8459 131.54 60.714 132.331 60.67V60.231C132.378 59.9288 132.355 59.6199 132.264 59.3279C132.173 59.036 132.017 58.7686 131.807 58.5461C131.598 58.3237 131.34 58.1521 131.054 58.0444C130.767 57.9368 130.46 57.896 130.156 57.925C129.88 57.8914 129.599 57.9169 129.334 57.9999C129.068 58.0829 128.823 58.2214 128.615 58.4062C128.407 58.5911 128.241 58.8181 128.127 59.0722C128.013 59.3263 127.955 59.6016 127.956 59.8799H125.496C125.606 57.7709 127.144 56.1019 130.153 56.1019C133.099 56.1029 134.747 57.5529 134.747 60.4739ZM132.331 62.2969C131.47 62.3488 130.612 62.4443 129.761 62.5829C128.161 62.8469 127.561 63.33 127.561 64.34C127.561 65.329 128.261 65.9869 129.538 65.9869C130.283 66.0131 131.009 65.7452 131.559 65.241C131.855 64.9228 132.077 64.5435 132.21 64.1297C132.343 63.7159 132.383 63.278 132.328 62.847L132.331 62.2969Z" fill="white"></path><path d="M148.276 62.012C148.276 65.57 146.476 67.854 143.641 67.854C142.994 67.8764 142.352 67.7302 141.778 67.4299C141.204 67.1297 140.718 66.6855 140.368 66.141H140.324V71.654H137.824V56.433H140.262V57.968H140.306C140.648 57.3984 141.136 56.9296 141.718 56.6094C142.301 56.2892 142.958 56.129 143.622 56.145C146.453 56.147 148.276 58.453 148.276 62.012ZM140.193 62.012C140.193 64.428 141.269 65.922 142.893 65.922C144.584 65.922 145.661 64.385 145.661 62.012C145.661 59.639 144.585 58.102 142.893 58.102C141.27 58.102 140.193 59.573 140.193 62.012Z" fill="white"></path><path d="M158.137 64.2299H160.707C160.29 66.2299 158.489 67.9199 155.567 67.9199C152.167 67.9199 150.167 65.4819 150.167 61.8799C150.167 58.5849 152.144 56.1029 155.527 56.1029C156.674 56.0531 157.802 56.4056 158.716 57.0995C159.631 57.7934 160.274 58.785 160.535 59.9029C160.768 60.7539 160.871 61.6351 160.842 62.5169H152.649C152.737 65.0429 154.011 66.0749 155.57 66.0749C156.149 66.1305 156.728 65.9741 157.2 65.6348C157.672 65.2954 158.005 64.7962 158.137 64.2299V64.2299ZM152.69 60.8689H158.335C158.159 58.9139 157.017 57.9479 155.524 57.9479C154.008 57.9479 152.91 58.9369 152.69 60.8689Z" fill="white"></path><path d="M169.755 56.3879V58.6059C169.466 58.545 169.171 58.5155 168.876 58.5179C166.876 58.5179 165.776 59.7909 165.776 62.1179V67.5869H163.276V56.4319H165.604V58.0799H165.648C165.963 57.5172 166.427 57.0518 166.989 56.7344C167.55 56.417 168.188 56.2598 168.833 56.2799C169.143 56.2833 169.452 56.3195 169.755 56.3879V56.3879Z" fill="white"></path><path d="M178.41 64.2299H180.98C180.563 66.2299 178.762 67.9199 175.84 67.9199C172.44 67.9199 170.44 65.4819 170.44 61.8799C170.44 58.5849 172.417 56.1029 175.8 56.1029C176.947 56.0531 178.075 56.4056 178.99 57.0995C179.904 57.7934 180.547 58.785 180.808 59.9029C181.041 60.7539 181.145 61.6351 181.115 62.5169H172.919C173.007 65.0429 174.281 66.0749 175.84 66.0749C176.419 66.1313 176.999 65.9752 177.472 65.6358C177.945 65.2964 178.278 64.7968 178.41 64.2299V64.2299ZM172.963 60.8689H178.608C178.432 58.9139 177.29 57.9479 175.797 57.9479C174.281 57.9479 173.183 58.9369 172.963 60.8689V60.8689Z" fill="white"></path><path d="M194.971 54.2349V67.5889H192.357V54.2349H187.217V51.9509H200.11V54.2349H194.971Z" fill="white"></path><path d="M207.096 56.3879V58.6059C206.807 58.545 206.512 58.5155 206.217 58.5179C204.217 58.5179 203.117 59.7909 203.117 62.1179V67.5869H200.617V56.4319H202.945V58.0799H202.989C203.304 57.5172 203.768 57.0518 204.33 56.7344C204.891 56.417 205.529 56.2598 206.174 56.2799C206.484 56.2834 206.793 56.3195 207.096 56.3879V56.3879Z" fill="white"></path><path d="M215.771 64.2299H218.341C217.924 66.2299 216.123 67.9199 213.201 67.9199C209.801 67.9199 207.801 65.4819 207.801 61.8799C207.801 58.5849 209.778 56.1029 213.161 56.1029C214.308 56.0531 215.436 56.4056 216.351 57.0995C217.265 57.7934 217.908 58.785 218.169 59.9029C218.402 60.7539 218.505 61.6351 218.476 62.5169H210.283C210.371 65.0429 211.645 66.0749 213.204 66.0749C213.783 66.1305 214.362 65.9741 214.834 65.6348C215.306 65.2954 215.639 64.7962 215.771 64.2299V64.2299ZM210.324 60.8689H215.969C215.793 58.9139 214.651 57.9479 213.158 57.9479C211.642 57.9479 210.544 58.9369 210.324 60.8689Z" fill="white"></path><path d="M230.794 60.4739H228.18C228.183 60.157 228.122 59.8427 228.001 59.5497C227.88 59.2566 227.702 58.9907 227.477 58.7676C227.252 58.5445 226.984 58.3687 226.69 58.2506C226.396 58.1325 226.081 58.0745 225.764 58.0799C224.007 58.0799 222.975 59.573 222.975 62.012C222.975 64.451 224.007 65.944 225.764 65.944C226.092 65.9315 226.414 65.8544 226.711 65.7172C227.009 65.58 227.277 65.3854 227.499 65.1445C227.722 64.9036 227.894 64.6212 228.007 64.3134C228.12 64.0056 228.172 63.6785 228.158 63.3509H230.793C230.767 63.9826 230.616 64.6028 230.348 65.1755C230.08 65.7482 229.701 66.262 229.233 66.6871C228.765 67.1122 228.218 67.4401 227.622 67.6517C227.026 67.8634 226.394 67.9546 225.763 67.92C222.468 67.92 220.338 65.636 220.338 62.012C220.338 58.388 222.468 56.1039 225.763 56.1039C227.008 56.0222 228.235 56.4354 229.178 57.2538C230.12 58.0722 230.701 59.2295 230.794 60.4739Z" fill="white"></path><path d="M242.962 60.4739H240.348C240.351 60.157 240.29 59.8427 240.169 59.5497C240.048 59.2566 239.87 58.9907 239.645 58.7676C239.42 58.5445 239.152 58.3687 238.858 58.2506C238.564 58.1325 238.249 58.0745 237.932 58.0799C236.175 58.0799 235.143 59.573 235.143 62.012C235.143 64.451 236.175 65.944 237.932 65.944C238.26 65.9315 238.581 65.8545 238.879 65.7173C239.177 65.5802 239.445 65.3857 239.667 65.1449C239.889 64.9041 240.062 64.6217 240.175 64.3141C240.288 64.0064 240.34 63.6794 240.326 63.3519H242.962C242.936 63.9835 242.784 64.6037 242.517 65.1764C242.249 65.749 241.87 66.2627 241.402 66.6878C240.934 67.1129 240.386 67.4408 239.791 67.6525C239.195 67.8641 238.563 67.9554 237.932 67.921C234.638 67.921 232.507 65.6369 232.507 62.0129C232.507 58.3889 234.638 56.105 237.932 56.105C239.177 56.0235 240.404 56.4367 241.346 57.2548C242.288 58.073 242.868 59.2298 242.962 60.4739V60.4739Z" fill="white"></path><path d="M254.075 60.4739V64.647C254.05 65.6359 254.146 66.6241 254.36 67.59H252.098C251.99 67.0774 251.939 66.5547 251.944 66.0309H251.9C251.481 66.6279 250.915 67.107 250.257 67.4222C249.6 67.7374 248.872 67.8782 248.144 67.8309C245.816 67.8309 244.366 66.425 244.366 64.514C244.366 62.691 245.442 61.5049 248.649 60.9999C249.549 60.8459 250.867 60.714 251.658 60.67V60.231C251.705 59.9289 251.682 59.6202 251.591 59.3282C251.5 59.0363 251.344 58.769 251.135 58.5466C250.925 58.3242 250.667 58.1525 250.381 58.0448C250.095 57.9371 249.788 57.8961 249.484 57.925C249.208 57.8914 248.927 57.9169 248.662 57.9999C248.396 58.0829 248.151 58.2214 247.943 58.4062C247.735 58.5911 247.569 58.8181 247.455 59.0722C247.341 59.3263 247.283 59.6016 247.284 59.8799H244.824C244.934 57.7709 246.471 56.1019 249.481 56.1019C252.428 56.1029 254.075 57.5529 254.075 60.4739ZM251.659 62.2969C250.798 62.3489 249.94 62.4443 249.089 62.5829C247.489 62.8469 246.889 63.33 246.889 64.34C246.889 65.329 247.589 65.9869 248.866 65.9869C249.611 66.0131 250.337 65.7452 250.887 65.241C251.183 64.9228 251.405 64.5435 251.538 64.1297C251.671 63.7159 251.711 63.278 251.656 62.847L251.659 62.2969Z" fill="white"></path><path d="M266.968 60.7599V67.5909H264.468V60.9798C264.468 58.9798 263.611 58.1909 262.206 58.1909C260.779 58.1909 259.659 59.2669 259.659 61.3979V67.5918H257.159V56.4328H259.531V57.8829H259.575C259.948 57.3448 260.448 56.9069 261.03 56.608C261.612 56.309 262.259 56.1582 262.914 56.1689C265.43 56.1689 266.968 57.7069 266.968 60.7599Z" fill="white"></path><path d="M270.065 54.345V51.9509H272.565V54.345H270.065ZM270.065 67.59V56.4319H272.565V67.59H270.065Z" fill="white"></path></svg> 