<?xml version="1.0" encoding="UTF-8"?> <svg xmlns="http://www.w3.org/2000/svg" width="193" height="51" viewBox="0 0 193 51" fill="none"><path d="M86.607 34.394H93.207C92.285 38.688 88.222 42.242 81.99 42.242C74.603 42.242 70.31 37.071 70.31 29.593C70.31 22.668 74.603 17.313 81.943 17.313C84.3635 17.2117 86.748 17.9252 88.715 19.3392C90.6821 20.7533 92.118 22.7864 92.793 25.113C93.3498 27.0624 93.5988 29.0868 93.531 31.113H76.681C76.865 35.96 79.22 37.668 81.99 37.668C84.575 37.668 86.283 36.283 86.606 34.39M76.819 27.049H87.068C86.652 23.495 84.529 21.879 81.943 21.879C79.312 21.879 77.327 23.494 76.819 27.049Z" fill="white"></path><path d="M112.413 41.503V38.41H112.32C111.616 39.5597 110.624 40.5053 109.442 41.1531C108.26 41.8009 106.929 42.1284 105.581 42.103C99.672 42.103 95.84 37.256 95.84 29.777C95.84 22.298 99.626 17.451 105.489 17.451C106.794 17.4187 108.087 17.7145 109.248 18.3116C110.41 18.9086 111.403 19.7876 112.136 20.868H112.229V8.63403H118.69V41.503H112.413ZM102.58 29.774C102.58 34.252 104.564 37.161 107.657 37.161C110.566 37.161 112.551 34.437 112.551 29.774C112.551 25.111 110.566 22.388 107.657 22.388C104.564 22.388 102.58 25.296 102.58 29.774Z" fill="white"></path><path d="M122.43 32.455V18.055H128.894V31.811C128.894 35.366 130.463 36.982 133.002 36.982C135.68 36.982 137.617 34.858 137.617 30.612V18.052H144.081V41.504H138.033V38.549H137.94C137.161 39.6447 136.129 40.5358 134.931 41.1466C133.734 41.7574 132.406 42.0698 131.062 42.057C125.798 42.057 122.43 38.826 122.43 32.457" fill="white"></path><path d="M155.437 8.63501H148.974V41.504H155.437V8.63501Z" fill="white"></path><path d="M160.33 8.63403H166.794V14.174H160.33V8.63403ZM160.33 18.052H166.794V41.504H160.33V18.052Z" fill="white"></path><path d="M191.86 26.592V35.086C191.792 37.2441 192.009 39.4016 192.505 41.503H186.689C186.458 40.4728 186.349 39.4188 186.367 38.363H186.274C185.417 39.5687 184.27 40.5391 182.939 41.1847C181.608 41.8303 180.136 42.1303 178.658 42.057C173.672 42.057 170.671 39.01 170.671 34.947C170.671 31.116 172.978 28.53 179.765 27.468C181.521 27.191 184.151 26.915 185.629 26.822V25.992C185.629 23.037 184.057 21.836 181.795 21.836C179.395 21.836 178.009 23.176 177.919 25.391H171.639C171.871 20.913 175.102 17.312 181.795 17.312C188.443 17.312 191.86 20.452 191.86 26.591M185.629 30.746C184.244 30.839 182.305 31.023 180.92 31.254C178.242 31.715 177.135 32.593 177.135 34.486C177.135 36.24 178.335 37.44 180.595 37.44C181.953 37.4851 183.276 37.0056 184.29 36.101C185.397 34.994 185.63 33.747 185.63 31.624L185.629 30.746Z" fill="white"></path><path d="M23.594 41.134C17.994 41.134 13.24 37.683 12.867 27.889H46.912C47.0498 23.7939 46.5463 19.7025 45.42 15.763C42.435 6.156 34.413 0 23.5 0C8.67 0 0 10.819 0 24.811C0 39.922 8.67401 50.368 23.6 50.368C36.192 50.368 44.4 43.186 46.266 34.511H32.922C32.269 38.335 28.822 41.133 23.594 41.133M7.235 17.352C7.235 16.2284 7.56819 15.13 8.19243 14.1958C8.81666 13.2616 9.70391 12.5334 10.742 12.1035C11.78 11.6735 12.9223 11.561 14.0243 11.7802C15.1263 11.9994 16.1386 12.5404 16.9331 13.3349C17.7276 14.1294 18.2686 15.1417 18.4878 16.2437C18.707 17.3457 18.5945 18.488 18.1646 19.526C17.7346 20.5641 17.0064 21.4514 16.0722 22.0756C15.138 22.6998 14.0396 23.033 12.916 23.033C11.4093 23.033 9.96432 22.4345 8.89893 21.3691C7.83353 20.3037 7.235 18.8587 7.235 17.352" fill="white"></path></svg> 