<?xml version="1.0" encoding="UTF-8"?> <svg xmlns="http://www.w3.org/2000/svg" width="33" height="33" viewBox="0 0 33 33"><g id="Raggruppa_945" data-name="Raggruppa 945" transform="translate(0 0.87)"><path id="Tracciato_155" data-name="Tracciato 155" d="M38.375,13.63a.718.718,0,0,1-.507-.21L35.5,11.058,33.143,13.42a.717.717,0,0,1-1.225-.507V1.435A1.436,1.436,0,0,1,33.353,0h4.3a1.436,1.436,0,0,1,1.435,1.435V12.913a.717.717,0,0,1-.717.717m-2.87-4.3a.715.715,0,0,1,.507.21l1.645,1.645V1.435h-4.3v9.746L35,9.536a.715.715,0,0,1,.507-.21" transform="translate(-9.02 1)" fill="#da291c"></path><path id="Tracciato_156" data-name="Tracciato 156" d="M16.5,30.7a.717.717,0,0,1-.71-.616,4.492,4.492,0,0,1-.014-1.168A3.088,3.088,0,0,0,12.3,26.384a.678.678,0,0,1-.1.007H2.152A2.155,2.155,0,0,1,0,24.239V4.152A2.155,2.155,0,0,1,2.152,2H12.2a4.637,4.637,0,0,1,4.3,2.515A4.637,4.637,0,0,1,20.8,2a.717.717,0,1,1,0,1.435c-3.238,0-3.587,3.01-3.587,4.3a.717.717,0,1,1-1.435,0c0-1.294-.349-4.3-3.587-4.3H2.152a.719.719,0,0,0-.717.717V24.239a.718.718,0,0,0,.717.717h9.995A4.531,4.531,0,0,1,16.5,26.939a4.516,4.516,0,0,1,4.35-1.982h9.995a.718.718,0,0,0,.717-.717V4.152a.718.718,0,0,0-.717-.717H29.413a.717.717,0,1,1,0-1.435h1.435A2.155,2.155,0,0,1,33,4.152V24.239a2.155,2.155,0,0,1-2.152,2.152H20.8a.688.688,0,0,1-.1-.007,3.054,3.054,0,0,0-.871,0,3.1,3.1,0,0,0-2.607,2.529,4.535,4.535,0,0,1-.014,1.166.717.717,0,0,1-.71.616" transform="translate(0 0.435)" fill="#da291c"></path><path id="Tracciato_157" data-name="Tracciato 157" d="M22.717,31.957A.717.717,0,0,1,22,31.239V9.717a.717.717,0,0,1,1.435,0V31.239a.717.717,0,0,1-.717.717" transform="translate(-6.217 -1.543)" fill="#da291c"></path><rect id="Rettangolo_287" data-name="Rettangolo 287" width="33" height="33" transform="translate(0 -0.87)" fill="none" opacity="0.51"></rect></g></svg> 