<?xml version="1.0" encoding="UTF-8"?> <svg xmlns="http://www.w3.org/2000/svg" xmlns:xlink="http://www.w3.org/1999/xlink" width="33" height="33" viewBox="0 0 33 33"><defs><clipPath id="clip-path"><rect id="Rettangolo_196" data-name="Rettangolo 196" width="33" height="33" fill="#da291c"></rect></clipPath></defs><g id="Raggruppa_954" data-name="Raggruppa 954" transform="translate(-148 -4332)"><g id="Raggruppa_711" data-name="Raggruppa 711" transform="translate(148 4332)" clip-path="url(#clip-path)"><path id="Tracciato_153" data-name="Tracciato 153" d="M16.5,33A16.5,16.5,0,1,1,33,16.5,16.519,16.519,0,0,1,16.5,33m0-31.625A15.125,15.125,0,1,0,31.625,16.5,15.142,15.142,0,0,0,16.5,1.375" fill="#da291c"></path><path id="Tracciato_154" data-name="Tracciato 154" d="M31.939,28.5a.688.688,0,0,1-.465-.181l-8.25-7.562A.689.689,0,0,1,23,20.25V12.688a.688.688,0,1,1,1.375,0v7.26L32.4,27.306a.688.688,0,0,1-.465,1.194" transform="translate(-7.188 -3.75)" fill="#da291c"></path><rect id="Rettangolo_286" data-name="Rettangolo 286" width="33" height="33" fill="none"></rect></g></g></svg> 