<?xml version="1.0" encoding="UTF-8"?> <svg xmlns="http://www.w3.org/2000/svg" width="33" height="33" viewBox="0 0 33 33"><g id="Raggruppa_951" data-name="Raggruppa 951" transform="translate(0 6.25)"><g id="Raggruppa_952" data-name="Raggruppa 952" transform="translate(0 -2)"><path id="Tracciato_182" data-name="Tracciato 182" d="M3.7,33.5A3.428,3.428,0,0,1,.313,30.635L.009,28.8A.688.688,0,0,1,.687,28H32.312a.688.688,0,0,1,.678.8l-.3,1.827A3.427,3.427,0,0,1,29.3,33.5H3.7ZM1.5,29.375l.171,1.033A2.057,2.057,0,0,0,3.7,32.125H29.3A2.055,2.055,0,0,0,31.33,30.4l.171-1.027Z" transform="translate(0 -8.75)" fill="#da291c"></path><path id="Tracciato_183" data-name="Tracciato 183" d="M31.563,20.625H2.688A.687.687,0,0,1,2,19.938V2.063A2.065,2.065,0,0,1,4.063,0H30.188A2.065,2.065,0,0,1,32.25,2.063V19.938a.687.687,0,0,1-.687.688M3.375,19.25h27.5V2.063a.688.688,0,0,0-.687-.687H4.063a.689.689,0,0,0-.687.688Z" transform="translate(-0.625)" fill="#da291c"></path><path id="Tracciato_184" data-name="Tracciato 184" d="M22.281,11.57a3.781,3.781,0,1,1,3.781-3.781,3.785,3.785,0,0,1-3.781,3.781m0-6.187a2.406,2.406,0,1,0,2.406,2.406,2.409,2.409,0,0,0-2.406-2.406" transform="translate(-5.781 -1.252)" fill="#da291c"></path><path id="Tracciato_185" data-name="Tracciato 185" d="M27.063,21.188H14.688a.688.688,0,0,1-.666-.857,7.072,7.072,0,0,1,13.707,0,.686.686,0,0,1-.665.857M15.647,19.813H26.1a5.7,5.7,0,0,0-10.458,0" transform="translate(-4.375 -4.688)" fill="#da291c"></path></g><rect id="Rettangolo_292" data-name="Rettangolo 292" width="33" height="33" transform="translate(0 -6.25)" fill="none" opacity="0.51"></rect></g></svg> 