<?xml version="1.0" encoding="UTF-8"?> <svg xmlns="http://www.w3.org/2000/svg" width="33" height="33" viewBox="0 0 33 33"><g id="Raggruppa_949" data-name="Raggruppa 949" transform="translate(3 -7.333)"><g id="Raggruppa_950" data-name="Raggruppa 950" transform="translate(2)"><path id="Tracciato_177" data-name="Tracciato 177" d="M18.984,33H3.516A3.481,3.481,0,0,1,0,29.563V3.438A3.481,3.481,0,0,1,3.516,0H18.984A3.481,3.481,0,0,1,22.5,3.438V29.563A3.481,3.481,0,0,1,18.984,33M3.516,1.375A2.089,2.089,0,0,0,1.406,3.438V29.563a2.089,2.089,0,0,0,2.109,2.063H18.984a2.089,2.089,0,0,0,2.109-2.062V3.438a2.089,2.089,0,0,0-2.109-2.063Z" transform="translate(0 7.333)" fill="#da291c"></path><path id="Tracciato_178" data-name="Tracciato 178" d="M21.8,39.681H.7A.854.854,0,0,1,.7,38H21.8a.854.854,0,0,1,0,1.681" transform="translate(0 -4.794)" fill="#da291c"></path><path id="Tracciato_179" data-name="Tracciato 179" d="M19.243,5.681h-8.4A.84.84,0,1,1,10.84,4h8.4a.84.84,0,1,1,0,1.681" transform="translate(-3.792 6.695)" fill="#da291c"></path><path id="Tracciato_180" data-name="Tracciato 180" d="M15.76,43.521a1.26,1.26,0,0,1,0-2.521Z" transform="translate(-4.402 -6.548)" fill="#da291c"></path><path id="Tracciato_181" data-name="Tracciato 181" d="M16,43.521V41a1.26,1.26,0,1,1,0,2.521" transform="translate(-4.858 -6.548)" fill="#da291c"></path></g><rect id="Rettangolo_291" data-name="Rettangolo 291" width="33" height="33" transform="translate(-3 7.333)" fill="none" opacity="0.51"></rect></g></svg> 