<?xml version="1.0" encoding="UTF-8"?> <svg xmlns="http://www.w3.org/2000/svg" xmlns:xlink="http://www.w3.org/1999/xlink" width="33" height="33" viewBox="0 0 33 33"><defs><clipPath id="clip-path"><rect id="Rettangolo_195" data-name="Rettangolo 195" width="33" height="33" fill="#da291c"></rect></clipPath></defs><g id="Raggruppa_953" data-name="Raggruppa 953" transform="translate(-148 -4221)"><g id="Raggruppa_709" data-name="Raggruppa 709" transform="translate(148 4221)" clip-path="url(#clip-path)"><path id="Tracciato_149" data-name="Tracciato 149" d="M16.188,18.9a.688.688,0,0,1-.584-.323,2.556,2.556,0,0,0-4.334,0,.688.688,0,0,1-1.166-.729A3.951,3.951,0,0,1,11.353,16.6a3.931,3.931,0,0,1,5.418,1.249.687.687,0,0,1-.582,1.052" transform="translate(-3.125 -4.999)" fill="#da291c"></path><path id="Tracciato_150" data-name="Tracciato 150" d="M28.687,18.9a.687.687,0,0,1-.582-1.052A3.931,3.931,0,0,1,33.522,16.6a3.951,3.951,0,0,1,1.248,1.248.688.688,0,0,1-1.166.729,2.556,2.556,0,0,0-4.334,0,.688.688,0,0,1-.584.323" transform="translate(-8.75 -4.999)" fill="#da291c"></path><path id="Tracciato_151" data-name="Tracciato 151" d="M19.937,36.88a9.646,9.646,0,0,1-8.885-5.928.687.687,0,1,1,1.268-.529,8.25,8.25,0,0,0,15.232,0,.687.687,0,1,1,1.268.529,9.648,9.648,0,0,1-8.884,5.928" transform="translate(-3.437 -9.375)" fill="#da291c"></path><path id="Tracciato_152" data-name="Tracciato 152" d="M16.5,33A16.5,16.5,0,1,1,33,16.5,16.519,16.519,0,0,1,16.5,33m0-31.625A15.125,15.125,0,1,0,31.625,16.5,15.142,15.142,0,0,0,16.5,1.375" fill="#da291c"></path><rect id="Rettangolo_285" data-name="Rettangolo 285" width="33" height="33" fill="none"></rect></g></g></svg> 