<?xml version="1.0" encoding="UTF-8"?> <svg xmlns="http://www.w3.org/2000/svg" width="33" height="33" viewBox="0 0 33 33"><g id="Raggruppa_948" data-name="Raggruppa 948" transform="translate(1 0.5)"><path id="Tracciato_165" data-name="Tracciato 165" d="M21.686,26.951a4.026,4.026,0,0,1-2.4-.8.667.667,0,1,1,.8-1.068,2.743,2.743,0,0,0,3.2,0,.668.668,0,1,1,.8,1.068,4.03,4.03,0,0,1-2.4.8" transform="translate(-6.325 -8.299)" fill="#da291c"></path><path id="Tracciato_166" data-name="Tracciato 166" d="M30.048,43.625a.667.667,0,0,1-.667-.667V41.481a1.972,1.972,0,0,0-.767-1.579c-1.77-1.351-5.846-3.619-13.247-3.619-7.386,0-11.472,2.268-13.25,3.621a1.971,1.971,0,0,0-.765,1.572v1.481a.667.667,0,0,1-1.335,0V41.481A3.3,3.3,0,0,1,1.3,38.845c1.915-1.457,6.285-3.9,14.062-3.9,7.794,0,12.154,2.44,14.059,3.894a3.3,3.3,0,0,1,1.291,2.643v1.472a.667.667,0,0,1-.667.667" transform="translate(-0.005 -11.625)" fill="#da291c"></path><path id="Tracciato_167" data-name="Tracciato 167" d="M18.527,21.451a1,1,0,1,1,0-2Z" transform="translate(-5.83 -6.469)" fill="#da291c"></path><path id="Tracciato_168" data-name="Tracciato 168" d="M19.026,21.451v-2a1,1,0,1,1,0,2" transform="translate(-6.328 -6.469)" fill="#da291c"></path><path id="Tracciato_169" data-name="Tracciato 169" d="M26.527,21.451a1,1,0,0,1,0-2Z" transform="translate(-8.49 -6.469)" fill="#da291c"></path><path id="Tracciato_170" data-name="Tracciato 170" d="M27.026,21.451v-2a1,1,0,1,1,0,2" transform="translate(-8.989 -6.469)" fill="#da291c"></path><path id="Tracciato_171" data-name="Tracciato 171" d="M18.692,25.059a8.677,8.677,0,0,1-8.676-8.676V7.888a.667.667,0,1,1,1.335,0v8.494a7.341,7.341,0,0,0,14.682,0V7.888a.667.667,0,1,1,1.335,0v8.494a8.677,8.677,0,0,1-8.676,8.676" transform="translate(-3.332 -2.402)" fill="#da291c"></path><path id="Tracciato_172" data-name="Tracciato 172" d="M15.962,7.94a2.012,2.012,0,0,1-.442-.049L2.571,4.946a1,1,0,0,1,0-1.953L15.512.049a2.029,2.029,0,0,1,.887,0h0L29.354,2.993a1,1,0,0,1,0,1.954L16.407,7.891a2.04,2.04,0,0,1-.445.049M4.3,3.969,15.814,6.59a.7.7,0,0,0,.3,0L27.628,3.97,16.106,1.351a.685.685,0,0,0-.3,0ZM29.058,4.3h0Zm-26.189,0h0m26.189-.65h0Zm-26.193,0h0" transform="translate(-0.596 0)" fill="#da291c"></path><path id="Tracciato_173" data-name="Tracciato 173" d="M18.692,16.619c-6.138,0-8.29-1.388-8.379-1.447a.667.667,0,0,1,.735-1.114c.049.029,2.038,1.226,7.644,1.226,5.648,0,7.625-1.215,7.644-1.227a.67.67,0,0,1,.92.2.663.663,0,0,1-.186.917c-.089.059-2.241,1.447-8.379,1.447" transform="translate(-3.332 -4.64)" fill="#da291c"></path><path id="Tracciato_174" data-name="Tracciato 174" d="M2.683,13.766a.668.668,0,0,1-.667-.667V6.048a.667.667,0,1,1,1.335,0V13.1a.668.668,0,0,1-.667.667" transform="translate(-0.671 -1.79)" fill="#da291c"></path><path id="Tracciato_175" data-name="Tracciato 175" d="M3.348,22.634H.678A.668.668,0,0,1,.011,22a10.211,10.211,0,0,1,1.428-5.711.693.693,0,0,1,1.147,0A10.211,10.211,0,0,1,4.014,22a.668.668,0,0,1-.667.637M1.338,21.3h1.35a8.874,8.874,0,0,0-.675-3.188A8.861,8.861,0,0,0,1.338,21.3" transform="translate(0 -5.316)" fill="#da291c"></path><path id="Tracciato_176" data-name="Tracciato 176" d="M19.244,43.747a1.331,1.331,0,0,1-.92-.368l-6.441-6.141a.667.667,0,0,1,.921-.966l6.44,6.14,6.44-6.14a.667.667,0,0,1,.922.966l-6.44,6.14a1.33,1.33,0,0,1-.921.369" transform="translate(-3.884 -12.004)" fill="#da291c"></path><rect id="Rettangolo_290" data-name="Rettangolo 290" width="33" height="33" transform="translate(-1 -0.5)" fill="none" opacity="0.51"></rect></g></svg> 